<?xml version="1.0" standalone="no"?>
<!DOCTYPE svg PUBLIC "-//W3C//DTD SVG 20010904//EN"
 "http://www.w3.org/TR/2001/REC-SVG-20010904/DTD/svg10.dtd">
<svg version="1.0" xmlns="http://www.w3.org/2000/svg"
 width="511.000000pt" height="511.000000pt" viewBox="0 0 511.000000 511.000000"
 preserveAspectRatio="xMidYMid meet">
<metadata>
Created by potrace 1.15, written by Peter Selinger 2001-2017
</metadata>
<g transform="translate(0.000000,511.000000) scale(0.100000,-0.100000)"
fill="#000000" stroke="none">
<path d="M2373 4938 c-219 -14 -432 -59 -640 -134 -215 -77 -548 -253 -524
-277 7 -7 22 -2 48 15 193 128 442 237 676 297 357 92 682 104 1047 40 250
-44 498 -134 744 -270 61 -33 113 -65 116 -69 3 -4 25 -20 50 -35 56 -34 163
-117 212 -163 22 -21 41 -31 49 -27 7 5 10 4 6 -2 -7 -11 56 -76 66 -68 4 3 5
2 2 -1 -2 -4 23 -37 58 -73 278 -296 483 -664 579 -1041 54 -213 71 -352 71
-590 1 -329 -36 -547 -145 -850 -113 -314 -373 -702 -615 -916 -42 -38 -87
-77 -98 -87 -101 -92 -311 -226 -485 -311 -737 -359 -1609 -314 -2305 117 -27
17 -95 63 -149 102 -55 38 -103 69 -108 67 -5 -1 -7 2 -4 7 3 5 -9 20 -27 34
-66 50 -236 225 -309 317 -212 267 -355 542 -442 849 -190 665 -82 1385 291
1956 170 258 406 506 625 654 33 22 46 37 40 43 -12 12 -35 -3 -147 -91 -192
-152 -370 -341 -506 -541 -374 -546 -503 -1201 -368 -1869 34 -169 156 -515
215 -606 7 -11 29 -49 48 -85 20 -36 40 -64 46 -62 7 1 9 -2 5 -8 -3 -5 18
-45 47 -88 80 -118 109 -153 120 -146 6 4 8 2 5 -3 -4 -6 3 -24 15 -39 40 -53
242 -255 313 -313 99 -81 212 -161 219 -154 3 4 6 2 6 -4 0 -20 231 -150 372
-210 133 -56 243 -92 393 -127 216 -52 309 -61 590 -60 226 1 263 4 390 28
274 53 448 111 685 232 194 98 520 329 504 356 -4 6 -3 8 4 5 22 -14 186 160
336 358 201 263 382 679 431 995 4 25 9 54 11 65 16 83 26 227 25 380 0 309
-43 553 -147 834 -70 189 -219 471 -239 453 -5 -4 -5 -1 -1 6 6 10 -55 109
-99 159 -5 6 -37 45 -70 86 -33 41 -63 73 -67 70 -5 -2 -8 0 -8 5 0 16 -156
171 -250 248 -317 263 -711 444 -1121 514 -117 20 -391 43 -454 38 -19 -2 -78
-6 -132 -10z"/>
<path d="M2786 4763 c-9 -67 -7 -113 4 -113 9 0 14 14 11 32 0 4 17 6 39 5 49
-2 73 20 73 63 0 41 -11 50 -70 55 l-50 4 -7 -46z"/>
<path d="M2285 4584 c-402 -55 -789 -230 -1079 -488 -125 -112 -231 -224 -230
-242 1 -8 -2 -11 -7 -8 -11 6 -111 -129 -180 -243 -162 -267 -257 -554 -289
-872 -38 -379 41 -792 216 -1131 63 -121 149 -255 162 -253 6 2 9 -3 7 -10 -7
-17 147 -198 257 -301 342 -322 754 -509 1227 -556 449 -44 931 77 1321 332
427 279 748 732 870 1228 35 142 50 257 57 420 21 534 -162 1045 -519 1446
-92 104 -109 119 -130 115 -4 0 -5 5 -2 13 3 7 -10 24 -28 38 -18 14 -51 42
-73 62 -89 80 -339 234 -478 293 -280 120 -550 174 -852 172 -82 -1 -195 -7
-250 -15z m470 -14 c174 -20 281 -43 430 -92 245 -81 462 -198 655 -353 90
-72 240 -225 312 -317 34 -43 65 -75 71 -71 6 3 7 1 3 -5 -3 -6 17 -46 46 -89
146 -219 249 -486 300 -773 28 -165 31 -480 5 -640 -126 -761 -645 -1382
-1357 -1624 -507 -172 -1051 -143 -1530 80 -498 233 -890 671 -1069 1195 -51
151 -76 268 -97 459 -34 299 12 640 123 925 81 206 200 411 329 566 80 97 267
276 359 345 340 254 772 399 1205 403 69 0 166 -4 215 -9z"/>
<path d="M1946 4163 c-3 -4 -6 -53 -6 -110 0 -76 3 -103 13 -103 6 0 53 -2
102 -3 l90 -2 3 111 3 111 -100 1 c-54 0 -102 -2 -105 -5z"/>
<path d="M1627 3933 c-4 -3 -7 -62 -7 -130 0 -121 0 -123 23 -124 12 -1 73 -2
134 -2 l113 -2 0 133 0 132 -128 0 c-71 0 -132 -3 -135 -7z"/>
<path d="M1220 3800 l0 -80 85 0 85 0 0 80 0 80 -85 0 -85 0 0 -80z"/>
<path d="M2079 3738 c0 -40 -2 -83 -3 -95 -3 -22 0 -23 91 -23 l93 0 0 95 0
95 -90 0 -90 0 -1 -72z"/>
<path d="M1648 3642 l-248 -2 0 -60 0 -60 35 0 c31 0 35 3 35 25 0 14 6 25 13
25 6 0 274 1 595 0 557 0 582 1 573 18 -12 23 1 45 24 40 25 -4 29 -22 10 -42
-15 -15 30 -16 602 -16 l618 1 3 -750 2 -750 -52 -5 c-29 -3 -145 -4 -258 -2
-113 2 -638 4 -1167 5 l-963 1 0 470 0 470 -35 0 -35 0 0 -505 0 -505 1290 0
1290 0 0 820 0 820 -647 2 c-357 2 -739 2 -850 0 -196 -2 -203 -3 -203 -23 0
-19 -6 -20 -112 -17 -102 3 -113 5 -113 21 0 22 -31 23 -407 19z"/>
<path d="M1301 3265 l0 -235 69 0 c45 0 70 4 73 13 4 10 6 10 6 0 1 -10 40
-13 161 -13 l160 0 0 235 0 235 -235 0 -234 0 0 -235z"/>
<path d="M2080 3264 l0 -195 193 3 192 3 3 193 2 192 -195 0 -195 0 0 -196z"/>
<path d="M2582 2938 l3 -63 63 -3 62 -3 0 66 0 65 -65 0 -66 0 3 -62z"/>
<path d="M1850 2870 l0 -90 96 0 95 0 -2 90 -3 90 -93 0 -93 0 0 -90z"/>
<path d="M1262 1904 c-27 -18 -28 -36 -4 -57 17 -16 134 -17 1478 -17 1122 0
1463 3 1472 12 15 15 15 51 0 66 -9 9 -349 12 -1468 12 -1301 0 -1458 -2
-1478 -16z m1728 -29 c0 -13 -43 -15 -325 -15 -282 0 -325 2 -325 15 0 13 43
15 325 15 282 0 325 -2 325 -15z"/>
<path d="M1830 1610 c-27 -6 -19 10 -154 -325 -42 -104 -86 -209 -96 -233 -11
-23 -20 -45 -20 -47 0 -3 15 -5 33 -5 30 0 35 4 47 40 l13 40 189 0 188 0 17
-37 c15 -31 24 -39 51 -41 17 -2 32 -1 32 2 0 3 -34 90 -76 193 -42 103 -96
238 -121 299 -45 116 -55 126 -103 114z m106 -278 c41 -102 74 -191 74 -197 0
-10 -319 -9 -329 1 -3 2 28 84 67 182 39 97 76 191 82 207 15 39 13 42 106
-193z"/>
<path d="M2625 1611 c-18 -8 -16 -10 15 -19 27 -8 30 -10 12 -11 -13 -1 -32 4
-43 9 -11 6 -19 7 -19 2 0 -15 38 -22 119 -22 85 0 132 -18 198 -75 24 -21 52
-35 67 -35 26 0 26 1 10 25 -9 14 -20 23 -24 20 -5 -3 -11 3 -15 12 -9 27 -61
64 -79 57 -9 -3 -13 -11 -9 -17 4 -7 0 -8 -11 -4 -10 4 -21 7 -24 7 -4 1 4 7
18 15 l25 13 -27 11 c-15 6 -37 6 -55 1 -28 -8 -28 -8 -3 -10 14 -1 34 -1 45
0 11 1 17 -1 13 -6 -13 -12 -77 -6 -100 10 -20 14 -19 15 18 19 22 2 5 4 -36
5 -41 0 -84 -3 -95 -7z"/>
<path d="M3343 1313 c-1 -218 2 -300 10 -305 7 -4 83 -8 170 -8 l157 0 0 30 0
30 -133 0 c-74 0 -136 2 -138 4 -2 2 -3 67 -1 143 l3 138 134 -3 135 -3 0 30
0 31 -137 0 -138 0 2 77 2 78 135 3 136 3 0 24 0 25 -167 0 -168 0 -2 -297z"/>
<path d="M2522 1560 c-50 -37 -103 -107 -95 -126 3 -8 8 -12 12 -10 3 2 7 -10
8 -27 2 -25 0 -28 -8 -17 -7 11 -8 4 -5 -25 4 -27 3 -32 -2 -15 -5 17 -10 21
-16 12 -4 -7 -12 -10 -17 -7 -5 4 -9 -9 -9 -27 0 -40 28 -135 29 -99 1 20 3
21 16 11 8 -7 15 -19 15 -26 0 -8 -7 -14 -15 -14 -18 0 -18 -2 -3 -34 9 -20
14 -23 25 -15 11 9 13 7 11 -12 -3 -21 1 -24 30 -23 25 2 32 -2 32 -17 0 -19
16 -26 22 -10 2 5 9 3 16 -5 10 -12 10 -14 -2 -14 -21 0 -29 -17 -10 -24 9 -4
13 -2 8 5 -4 8 1 9 17 4 19 -5 21 -4 9 4 -13 9 -12 11 5 11 19 1 19 2 -2 10
-12 5 -42 29 -67 53 -27 27 -47 40 -51 33 -3 -6 -3 -1 -1 12 2 12 1 20 -4 17
-4 -2 -10 8 -13 24 -4 16 -12 35 -20 42 -8 8 -12 23 -10 34 4 16 3 17 -6 5
-12 -18 -26 -7 -17 15 8 21 23 11 41 -28 9 -20 13 -23 9 -8 -8 31 6 177 15
162 5 -8 12 -2 21 18 7 17 28 43 46 58 l35 27 -23 14 c-13 7 -16 11 -7 9 9 -3
22 -1 30 4 12 7 12 9 -1 9 -13 0 -13 1 0 10 8 5 10 10 4 10 -5 0 -29 -14 -52
-30z"/>
<path d="M4115 4158 c-32 -25 -32 -61 0 -86 14 -11 25 -23 25 -26 0 -14 -23
-4 -45 20 -13 14 -29 23 -35 19 -18 -11 39 -65 67 -65 15 0 42 17 70 43 l45
43 -28 31 c-38 40 -67 46 -99 21z"/>
<path d="M3978 920 c-34 -37 -35 -69 -4 -99 31 -29 69 -22 89 16 9 17 17 22
21 14 4 -6 -6 -25 -24 -42 -19 -19 -28 -35 -22 -41 11 -11 72 56 72 79 0 15
-84 103 -99 103 -3 0 -18 -14 -33 -30z"/>
<path d="M2340 358 c-27 -29 -27 -91 0 -118 41 -41 138 -16 141 38 3 40 -3 58
-27 80 -33 29 -86 30 -114 0z"/>
</g>
</svg>
