<svg xmlns="http://www.w3.org/2000/svg" xmlns:svg="http://www.w3.org/2000/svg" id="svg2" width="744.094" height="1052.362" version="1.1"><defs id="defs4"><linearGradient id="linearGradient3813"><stop style="stop-color:#d43c20;stop-opacity:1" id="stop3815" offset="0"/><stop style="stop-color:#c32d11;stop-opacity:1" id="stop3817" offset="1"/></linearGradient></defs><metadata id="metadata7"/><g id="layer1"><path id="rect2989" d="M330.0 395.3622047L643.0 395.3622047L643.0 455.3622047L499.96699 455.3622047L486.5 462.3622047L473.03301 455.3622047L330.0 455.3622047Z" transform="matrix(1.000000,0.000000,0.000000,1.000000,0.000000,0.000000)" style="fill:#c93929;fill-opacity:1;stroke:none"/><text id="text2985" x="348.385" y="438.414" transform="scale(1.0066801,0.99336421)" xml:space="preserve" style="font-size:30.01604652px;font-style:normal;font-weight:400;line-height:51.99999809%;letter-spacing:0;word-spacing:0;fill:#fff;fill-opacity:1;stroke:none;font-family:Sans"><tspan style="font-size:30.01604652px;font-style:normal;font-variant:normal;font-weight:400;font-stretch:normal;text-align:start;line-height:51.99999809%;letter-spacing:-1.23065794px;writing-mode:lr-tb;text-anchor:start;fill:#fff;fill-opacity:1;font-family:Arial Black;-inkscape-font-specification:'Arial Black,'" id="tspan2987" x="348.385" y="438.414" dx="0 0 0 1.072 1.072 0 0 0 0 .536">IDEAL FORMS</tspan></text><g id="g3760" transform="matrix(1.000000,0.000000,0.000000,1.000000,-7.000000,1.000000)"><path style="fill:#fff;fill-opacity:1;stroke:none" id="path3770" d="m 652.30602,396.16708 c 0,25.18882 -20.41957,45.60839 -45.60839,45.60839 -25.18881,0 -45.60839,-20.41957 -45.60839,-45.60839 0,-25.18881 20.41958,-45.60838 45.60839,-45.60838 25.18882,0 45.60839,20.41957 45.60839,45.60838 z" transform="matrix(0.330039,0.000000,0.000000,0.325673,407.000000,295.000000)"/><text id="text3766" x="597.026" y="434.702" transform="scale(1.0066801,0.99336422)" xml:space="preserve" style="font-size:22.03571129px;font-style:normal;font-variant:normal;font-weight:500;font-stretch:normal;text-align:start;line-height:51.99999809%;letter-spacing:0;word-spacing:0;writing-mode:lr-tb;text-anchor:start;fill:#942416;fill-opacity:1;stroke:none;font-family:Ubuntu;-inkscape-font-specification:Ubuntu Medium"><tspan style="font-size:22.03571129px;font-style:normal;font-variant:normal;font-weight:500;font-stretch:normal;text-align:start;line-height:51.99999809%;letter-spacing:-.9034642px;writing-mode:lr-tb;text-anchor:start;fill:#942416;fill-opacity:1;font-family:Ubuntu;-inkscape-font-specification:Ubuntu Medium" id="tspan3768" x="597.026" y="434.702">3</tspan></text></g></g></svg>