<svg xmlns="http://www.w3.org/2000/svg" xmlns:svg="http://www.w3.org/2000/svg" xmlns:xlink="http://www.w3.org/1999/xlink" id="svg2" width="80" height="40" version="1.1"><defs id="defs4"><linearGradient id="linearGradient4415"><stop style="stop-color:#49a2cf;stop-opacity:1" id="stop4417" offset="0"/><stop style="stop-color:#326f8e;stop-opacity:1" id="stop4419" offset="1"/></linearGradient><linearGradient id="linearGradient3846"><stop style="stop-color:#9b9b9b;stop-opacity:1" id="stop3848" offset="0"/><stop style="stop-color:#ddd;stop-opacity:1" id="stop3850" offset="1"/></linearGradient><linearGradient id="linearGradient8583"><stop style="stop-color:#e4e4e4;stop-opacity:1" id="stop8585" offset="0"/><stop style="stop-color:#fff;stop-opacity:1" id="stop8587" offset="1"/></linearGradient><linearGradient id="linearGradient6428"><stop id="stop6430" offset="0" style="stop-color:#fff;stop-opacity:1"/><stop id="stop6432" offset="1" style="stop-color:#fff;stop-opacity:0"/></linearGradient><linearGradient id="linearGradient4786"><stop id="stop4788" offset="0" style="stop-color:#777;stop-opacity:1"/><stop id="stop4790" offset="1" style="stop-color:#fff;stop-opacity:1"/></linearGradient><linearGradient id="linearGradient3771"><stop style="stop-color:#efefef;stop-opacity:1" id="stop3773" offset="0"/><stop style="stop-color:#fff;stop-opacity:1" id="stop3775" offset="1"/></linearGradient><linearGradient id="linearGradient6612" x1="53.906" x2="53.906" y1="1017.227" y2="1031.638" gradientUnits="userSpaceOnUse" xlink:href="#linearGradient4786"/><linearGradient id="linearGradient6782" x1="53.906" x2="53.906" y1="1017.227" y2="1031.638" gradientTransform="translate(0,0.26516505)" gradientUnits="userSpaceOnUse" xlink:href="#linearGradient4786"/><linearGradient id="linearGradient6948" x1="53.906" x2="53.906" y1="1017.227" y2="1033.169" gradientTransform="translate(0,0.26516505)" gradientUnits="userSpaceOnUse" xlink:href="#linearGradient4786"/><linearGradient id="linearGradient6956" x1="53.906" x2="53.906" y1="1017.227" y2="1033.169" gradientTransform="translate(0,0.26516505)" gradientUnits="userSpaceOnUse" xlink:href="#linearGradient4786"/><linearGradient id="linearGradient6960" x1="53.906" x2="53.906" y1="1017.227" y2="1033.169" gradientTransform="translate(0,0.26516505)" gradientUnits="userSpaceOnUse" xlink:href="#linearGradient4786"/><linearGradient id="linearGradient8179" x1="53.906" x2="53.906" y1="1017.227" y2="1033.169" gradientTransform="translate(0,0.26516505)" gradientUnits="userSpaceOnUse" xlink:href="#linearGradient4786"/><linearGradient id="linearGradient8613" x1="-59.99" x2="-59.99" y1="1128.362" y2="1144.815" gradientTransform="translate(0,-0.01480219)" gradientUnits="userSpaceOnUse" xlink:href="#linearGradient4786"/><linearGradient id="linearGradient8632" x1="-60" x2="-60" y1="1137.342" y2="1128.362" gradientUnits="userSpaceOnUse" xlink:href="#linearGradient6428"/><linearGradient id="linearGradient8806" x1="-60" x2="-60" y1="1140.362" y2="1124.362" gradientTransform="matrix(0.99878024,0,0,0.99878024,19.936573,1.3812383)" gradientUnits="userSpaceOnUse" xlink:href="#linearGradient3771"/><linearGradient id="linearGradient8808" x1="-61.125" x2="-61.125" y1="150.125" y2="131" gradientUnits="userSpaceOnUse" xlink:href="#linearGradient3771"/><linearGradient id="linearGradient8814" x1="-60" x2="-60" y1="1137.342" y2="1128.362" gradientTransform="translate(20.009758,0)" gradientUnits="userSpaceOnUse" xlink:href="#linearGradient6428"/><linearGradient id="linearGradient8816" x1="-59.99" x2="-59.99" y1="1128.362" y2="1144.815" gradientTransform="translate(20.009758,-0.01480219)" gradientUnits="userSpaceOnUse" xlink:href="#linearGradient4786"/><linearGradient id="linearGradient8842" x1="-60" x2="-60" y1="1140.362" y2="1124.362" gradientTransform="translate(40.009757,3.4762813e-5)" gradientUnits="userSpaceOnUse" xlink:href="#linearGradient3771"/><linearGradient id="linearGradient8844" x1="-61.125" x2="-61.125" y1="141.033" y2="131" gradientUnits="userSpaceOnUse" xlink:href="#linearGradient3771"/><linearGradient id="linearGradient8846" x1="-60" x2="-60" y1="149" y2="131" gradientUnits="userSpaceOnUse" xlink:href="#linearGradient6428"/><linearGradient id="linearGradient8848" x1="-60" x2="-60" y1="131" y2="152" gradientUnits="userSpaceOnUse" xlink:href="#linearGradient4786"/><linearGradient id="linearGradient8850" x1="-60" x2="-60" y1="1137.342" y2="1128.362" gradientTransform="translate(40.009757,3.4762813e-5)" gradientUnits="userSpaceOnUse" xlink:href="#linearGradient6428"/><linearGradient id="linearGradient8852" x1="-59.99" x2="-59.99" y1="1127.538" y2="1145.691" gradientTransform="translate(40.009757,-0.01476742)" gradientUnits="userSpaceOnUse" xlink:href="#linearGradient4786"/><linearGradient id="linearGradient8880" x1="-61.125" x2="-61.125" y1="150.125" y2="131" gradientUnits="userSpaceOnUse" xlink:href="#linearGradient3771"/><linearGradient id="linearGradient8882" x1="-60" x2="-60" y1="149" y2="131" gradientUnits="userSpaceOnUse" xlink:href="#linearGradient6428"/><linearGradient id="linearGradient8886" x1="-60" x2="-60" y1="1137.342" y2="1128.362" gradientTransform="translate(59.990248,3.4762813e-5)" gradientUnits="userSpaceOnUse" xlink:href="#linearGradient6428"/><linearGradient id="linearGradient8888" x1="-59.99" x2="-59.99" y1="1127.292" y2="1145.941" gradientTransform="translate(59.990248,-0.01476742)" gradientUnits="userSpaceOnUse" xlink:href="#linearGradient4786"/><linearGradient id="linearGradient8928" x1="-60" x2="-60" y1="1140.362" y2="1124.362" gradientTransform="translate(0,3.4762813e-5)" gradientUnits="userSpaceOnUse" xlink:href="#linearGradient3771"/><linearGradient id="linearGradient8930" x1="-61.125" x2="-61.125" y1="150.125" y2="131" gradientUnits="userSpaceOnUse" xlink:href="#linearGradient3771"/><linearGradient id="linearGradient3858" x1="-19.992" x2="-19.992" y1="1132.905" y2="1123.512" gradientUnits="userSpaceOnUse" xlink:href="#linearGradient3846"/><linearGradient id="linearGradient3866" x1="-59.779" x2="-59.779" y1="148.779" y2="131.248" gradientUnits="userSpaceOnUse" xlink:href="#linearGradient3846"/><linearGradient id="linearGradient3874" x1="-60.178" x2="-60.178" y1="141.056" y2="131.219" gradientUnits="userSpaceOnUse" xlink:href="#linearGradient3846"/><linearGradient id="linearGradient4279" x1="-59.754" x2="-59.754" y1="1132.742" y2="1123.373" gradientUnits="userSpaceOnUse" xlink:href="#linearGradient3846"/><linearGradient id="linearGradient4413" x1="-60" x2="-60" y1="1140.362" y2="1124.362" gradientTransform="matrix(0.99999809,0,0,0.99999809,59.990133,0.0022006)" gradientUnits="userSpaceOnUse" xlink:href="#linearGradient3771"/><linearGradient id="linearGradient4421" x1="-61.132" x2="-61.132" y1="147.53" y2="130.043" gradientUnits="userSpaceOnUse" xlink:href="#linearGradient4415"/><linearGradient id="linearGradient4429" x1="-.076" x2="-.076" y1="1136.424" y2="1128.966" gradientTransform="translate(-1.3038516e-8,-5.841189e-6)" gradientUnits="userSpaceOnUse" xlink:href="#linearGradient4415"/><linearGradient id="linearGradient4482" x1="-60" x2="-60" y1="1137.342" y2="1128.362" gradientTransform="translate(40.009757,3.4762813e-5)" gradientUnits="userSpaceOnUse" xlink:href="#linearGradient6428"/><linearGradient id="linearGradient4484" x1="-59.99" x2="-59.99" y1="1127.538" y2="1145.691" gradientTransform="translate(40.009757,-0.01476742)" gradientUnits="userSpaceOnUse" xlink:href="#linearGradient4786"/><linearGradient id="linearGradient4486" x1="-60" x2="-60" y1="1137.342" y2="1128.362" gradientTransform="translate(59.990248,3.4762813e-5)" gradientUnits="userSpaceOnUse" xlink:href="#linearGradient6428"/><filter id="filter3912" color-interpolation-filters="sRGB"><feGaussianBlur id="feGaussianBlur3914" stdDeviation=".232"/></filter><filter id="filter3916" color-interpolation-filters="sRGB"><feGaussianBlur id="feGaussianBlur3918" stdDeviation=".232"/></filter><filter id="filter3920" color-interpolation-filters="sRGB"><feGaussianBlur id="feGaussianBlur3922" stdDeviation=".231"/></filter><filter id="filter3924" color-interpolation-filters="sRGB"><feGaussianBlur id="feGaussianBlur3926" stdDeviation=".231"/></filter></defs><metadata id="metadata7"/><g id="layer1" transform="translate(70,-1122.3622)"><path id="path8772" d="m -51,140 c 0,4.97056 -4.029437,9 -9,9 -4.970563,0 -9,-4.02944 -9,-9 0,-4.97056 4.029437,-9 9,-9 4.970563,0 9,4.02944 9,9 z" transform="translate(0,1013.3622)" style="opacity:.15;fill:#000;fill-opacity:1;stroke:none"/><rect style="opacity:.15;fill:#000;fill-opacity:1;stroke:none" id="rect8730" width="18" height="18" x="-69" y="1124.362" rx="4" ry="4"/><rect id="rect8564" width="18" height="18" x="-69" y="1123.362" rx="4" ry="4" style="fill:url(#linearGradient4279);fill-opacity:1;stroke:none"/><rect style="fill:url(#linearGradient8928);fill-opacity:1;stroke:none" id="rect8531" width="16" height="16" x="-68" y="1124.362" rx="3.3" ry="3.3"/><path style="fill:url(#linearGradient3874);fill-opacity:1;stroke:none" id="path8543" d="m -51,140 c 0,4.97056 -4.029437,9 -9,9 -4.970563,0 -9,-4.02944 -9,-9 0,-4.97056 4.029437,-9 9,-9 4.970563,0 9,4.02944 9,9 z" transform="translate(0,1012.3622)"/><path id="path8562" d="m -51,140 c 0,4.97056 -4.029437,9 -9,9 -4.970563,0 -9,-4.02944 -9,-9 0,-4.97056 4.029437,-9 9,-9 4.970563,0 9,4.02944 9,9 z" transform="matrix(0.88888889,0,0,0.88888889,-6.6666667,1027.9178)" style="fill:url(#linearGradient8930);fill-opacity:1;stroke:none"/><rect style="fill:#3f9dcc;fill-opacity:1;stroke:none;filter:url(#filter3912)" id="rect8786" width="18" height="18" x="-48.99" y="1123.362" rx="4.249" ry="4.249" transform="matrix(1.059186,0,0,1.059186,2.3668609,-67.019944)"/><rect id="rect8788" width="15.98" height="15.98" x="-47.98" y="1124.372" rx="3.3" ry="3.3" style="fill:url(#linearGradient8806);fill-opacity:1;stroke:none"/><path id="path8790" d="m -51,140 c 0,4.97056 -4.029437,9 -9,9 -4.970563,0 -9,-4.02944 -9,-9 0,-4.97056 4.029437,-9 9,-9 4.970563,0 9,4.02944 9,9 z" transform="matrix(1.059186,0,0,1.059186,23.560916,1004.0762)" style="fill:#3f9dcc;fill-opacity:1;stroke:none;filter:url(#filter3916)"/><path style="fill:url(#linearGradient8808);fill-opacity:1;stroke:none" id="path8792" d="m -51,140 c 0,4.97056 -4.029437,9 -9,9 -4.970563,0 -9,-4.02944 -9,-9 0,-4.97056 4.029437,-9 9,-9 4.970563,0 9,4.02944 9,9 z" transform="matrix(0.88780467,0,0,0.88780467,13.278038,1028.0696)"/><path id="path8818" d="m -51,140 c 0,4.97056 -4.029437,9 -9,9 -4.970563,0 -9,-4.02944 -9,-9 0,-4.97056 4.029437,-9 9,-9 4.970563,0 9,4.02944 9,9 z" transform="translate(40.009757,1013.3622)" style="opacity:.15;fill:#000;fill-opacity:1;stroke:none"/><rect style="opacity:.15;fill:#000;fill-opacity:1;stroke:none" id="rect8820" width="18" height="18" x="-28.99" y="1124.362" rx="4" ry="4"/><rect id="rect8822" width="18" height="18" x="-28.99" y="1123.362" rx="4" ry="4" style="fill:url(#linearGradient3858);fill-opacity:1;stroke:none"/><rect style="fill:url(#linearGradient8842);fill-opacity:1;stroke:none" id="rect8824" width="16" height="16" x="-27.99" y="1124.362" rx="3.3" ry="3.3"/><path style="fill:url(#linearGradient3866);fill-opacity:1;stroke:none" id="path8826" d="m -51,140 c 0,4.97056 -4.029437,9 -9,9 -4.970563,0 -9,-4.02944 -9,-9 0,-4.97056 4.029437,-9 9,-9 4.970563,0 9,4.02944 9,9 z" transform="translate(40.009757,1012.3622)"/><path id="path8828" d="m -51,140 c 0,4.97056 -4.029437,9 -9,9 -4.970563,0 -9,-4.02944 -9,-9 0,-4.97056 4.029437,-9 9,-9 4.970563,0 9,4.02944 9,9 z" transform="matrix(0.88888889,0,0,0.88888889,33.34309,1027.9178)" style="fill:url(#linearGradient8844);fill-opacity:1;stroke:none"/><path style="fill:url(#linearGradient8846);fill-opacity:1;stroke:none" id="path8830" d="m -51,140 c 0,4.97056 -4.029437,9 -9,9 -4.970563,0 -9,-4.02944 -9,-9 0,-4.97056 4.029437,-9 9,-9 4.970563,0 9,4.02944 9,9 z" transform="matrix(0.44444424,0,0,0.44444424,6.6764117,1090.14)"/><path id="path8832" d="m -51,140 c 0,4.97056 -4.029437,9 -9,9 -4.970563,0 -9,-4.02944 -9,-9 0,-4.97056 4.029437,-9 9,-9 4.970563,0 9,4.02944 9,9 z" transform="matrix(0.33333213,0,0,0.33333213,0.00968467,1105.6957)" style="fill:url(#linearGradient8848);fill-opacity:1;stroke:none"/><text id="text8834" x="-25.99" y="1139.006" xml:space="preserve" style="font-size:19.9804821px;font-style:normal;font-variant:normal;font-weight:700;font-stretch:normal;text-align:start;line-height:125%;letter-spacing:0;word-spacing:0;writing-mode:lr-tb;text-anchor:start;fill:url(#linearGradient4482);fill-opacity:1;stroke:none;font-family:Courier New;-inkscape-font-specification:Courier New Bold"><tspan id="tspan8836" x="-25.99" y="1139.006" style="fill:url(#linearGradient4482);fill-opacity:1">×</tspan></text><text style="font-size:19.9804821px;font-style:normal;font-variant:normal;font-weight:700;font-stretch:normal;text-align:start;line-height:125%;letter-spacing:0;word-spacing:0;writing-mode:lr-tb;text-anchor:start;fill:url(#linearGradient4484);fill-opacity:1;stroke:none;font-family:Courier New;-inkscape-font-specification:Courier New Bold" id="text8838" x="-25.99" y="1138.021" xml:space="preserve"><tspan id="tspan8840" x="-25.99" y="1138.021" style="fill:url(#linearGradient4484);fill-opacity:1">×</tspan></text><rect style="fill:#3f9dcc;fill-opacity:1;stroke:none;filter:url(#filter3920)" id="rect8858" width="18" height="18" x="-9.01" y="1123.362" rx="4.244" ry="4.244" transform="matrix(1.0602187,0,0,1.0602187,5.8732648e-4,-68.189357)"/><rect id="rect8860" width="16" height="16" x="-8.01" y="1124.362" rx="3.3" ry="3.3" style="fill:url(#linearGradient4413);fill-opacity:1;stroke:none"/><path id="path8862" d="m -51,140 c 0,4.97056 -4.029437,9 -9,9 -4.970563,0 -9,-4.02944 -9,-9 0,-4.97056 4.029437,-9 9,-9 4.970563,0 9,4.02944 9,9 z" transform="matrix(1.0602205,0,0,1.0602205,63.603479,1003.9313)" style="fill:#3f9dcc;fill-opacity:1;stroke:none;filter:url(#filter3924)"/><path style="fill:url(#linearGradient8880);fill-opacity:1;stroke:none" id="path8864" d="m -51,140 c 0,4.97056 -4.029437,9 -9,9 -4.970563,0 -9,-4.02944 -9,-9 0,-4.97056 4.029437,-9 9,-9 4.970563,0 9,4.02944 9,9 z" transform="matrix(0.88889496,0,0,0.88889496,53.323945,1027.917)"/><rect style="fill:#2c576c;fill-opacity:0;stroke:none" id="rect4361" width="15.286" height="15.286" x="-7.653" y="1132.719" rx="3.3" ry="3.3"/><path id="path8866" d="m -51,140 c 0,4.97056 -4.029437,9 -9,9 -4.970563,0 -9,-4.02944 -9,-9 0,-4.97056 4.029437,-9 9,-9 4.970563,0 9,4.02944 9,9 z" transform="matrix(0.44444424,0,0,0.44444424,26.656902,1090.14)" style="fill:url(#linearGradient8882);fill-opacity:1;stroke:none"/><path style="fill:url(#linearGradient4421);fill-opacity:1;stroke:none" id="path8868" d="m -51,140 c 0,4.97056 -4.029437,9 -9,9 -4.970563,0 -9,-4.02944 -9,-9 0,-4.97056 4.029437,-9 9,-9 4.970563,0 9,4.02944 9,9 z" transform="matrix(0.33333213,0,0,0.33333213,19.990175,1105.6957)"/><text style="font-size:19.9804821px;font-style:normal;font-variant:normal;font-weight:700;font-stretch:normal;text-align:start;line-height:125%;letter-spacing:0;word-spacing:0;writing-mode:lr-tb;text-anchor:start;fill:url(#linearGradient4486);fill-opacity:1;stroke:none;font-family:Courier New;-inkscape-font-specification:Courier New Bold" id="text8870" x="-6.01" y="1139.006" xml:space="preserve"><tspan style="fill:url(#linearGradient4486);fill-opacity:1" id="tspan8872" x="-6.01" y="1139.006">×</tspan></text><text id="text8874" x="-6.01" y="1138.021" xml:space="preserve" style="font-size:19.9804821px;font-style:normal;font-variant:normal;font-weight:700;font-stretch:normal;text-align:start;line-height:125%;letter-spacing:0;word-spacing:0;writing-mode:lr-tb;text-anchor:start;fill:url(#linearGradient4429);fill-opacity:1;stroke:none;font-family:Courier New;-inkscape-font-specification:Courier New Bold"><tspan style="fill:url(#linearGradient4429);fill-opacity:1" id="tspan8876" x="-6.01" y="1138.021">×</tspan></text></g></svg>